# xmcd
#
# Track frame offsets:
#	150
#	17443
#	40620
#	60972
#	80634
#	101740
#	119717
#	141554
#	157055
#
# Disc length: 2316 seconds
#
# Revision: 0
# Processed by: cddbd v1.5.2PL0 Copyright (c) Steve Scherf et al.
# Submitted via: audiograbber 1.83.01
#
DISCID=76090a09
DTITLE=Glen, Marla - This is Marla Glen
DYEAR=1993
DGENRE=Blues
TTITLE0=The cost of freedom
TTITLE1=Believer
TTITLE2=Destiny (to get up again)
TTITLE3=Enough
TTITLE4=Personal
TTITLE5=Control
TTITLE6=Travel
TTITLE7=Feet on the ground
TTITLE8=You hurt me
EXTD=ID3G:   0
EXTT0=
EXTT1=
EXTT2=
EXTT3=
EXTT4=
EXTT5=
EXTT6=
EXTT7=
EXTT8=
PLAYORDER=
